<svg xmlns="http://www.w3.org/2000/svg" viewBox="0 0 1200 170" role="img" aria-labelledby="title desc">
  <title id="title">Racer X2</title>
  <desc id="desc">Hot pink Racer X2 solar race team wordmark.</desc>
  <rect width="1200" height="170" fill="none"/>
  <g fill="#ff3ea5">
    <path d="M42 134 83 36h166c21 0 35 5 43 15 8 9 9 22 3 37-7 17-20 29-40 36l34 10h-79l-31-26h-64l-11 26H42Zm93-73-12 29h93c15 0 25-5 29-15 4-9-2-14-18-14h-92Z"/>
    <path d="M306 134 451 36h63l39 98h-73l-6-18H366l-25 18h-35Zm93-42h67l-12-34-55 34Z"/>
    <path d="M578 134c-23 0-39-6-48-17-9-12-10-28-2-48 9-21 24-38 46-49 22-12 50-18 83-18h136l-11 26H650c-18 0-32 3-42 9-10 6-17 15-22 27-5 13-5 23 2 30 6 7 19 10 38 10h132l-12 30H578Z"/>
    <path d="M768 134 810 36h203l-11 26H863l-5 12h132l-10 24H848l-5 12h143l-10 24H768Z"/>
    <path d="M997 134 1038 36h166c21 0 35 5 43 15 8 9 9 22 3 37-7 17-20 29-40 36l34 10h-79l-31-26h-64l-11 26h-62Zm93-73-12 29h93c15 0 25-5 29-15 4-9-2-14-18-14h-92Z"/>
    <path d="M929 134 1024 85 972 36h78l27 27 75-27h79l-113 49 58 49h-80l-31-28-58 28h-78Z"/>
    <path d="M1120 42c4-10 16-15 36-15h65c18 0 30 4 36 11 5 7 5 16 0 27-4 10-12 18-24 24l-55 28h64l-8 19h-130l7-17 89-45c8-4 13-8 15-13 2-6-2-9-12-9h-43c-10 0-17 3-20 10l-2 5h-51l7-25Z"/>
  </g>
</svg>
