<svg xmlns="http://www.w3.org/2000/svg" viewBox="0 0 1200 920" role="img" aria-labelledby="title desc">
  <title id="title">Racer X2 mark</title>
  <desc id="desc">Hot pink Racer X2 sun and gear style logo mark.</desc>
  <rect width="1200" height="920" fill="none"/>
  <g fill="#ff3ea5">
    <path d="M454 108 482 8c3-10 16-11 24-3l80 78c8 8 5 20-6 23l-114 27c-8 2-14-6-12-25Z"/>
    <path d="M714 84 797 4c8-8 20-5 23 6l31 112c3 11-7 21-18 18l-112-28c-12-3-15-18-7-28Z"/>
    <path d="M205 176c-2-14 8-22 21-17l96 36c14 5 17 19 6 29l-80 68c-11 9-25 3-28-11l-15-105Z"/>
    <path d="M882 202c-11-10-8-24 6-29l98-35c13-5 24 4 21 18l-18 104c-3 14-18 20-28 10l-79-68Z"/>
    <path d="M88 348c-11-11-7-25 8-28l91-13c15-2 24 10 18 24l-35 88c-5 14-21 16-30 4L88 348Z"/>
    <path d="M1049 324c15 3 20 17 9 28l-64 68c-10 11-25 7-29-7l-30-90c-5-14 5-25 19-23l95 24Z"/>
    <path d="M110 660c-8-13 0-27 15-27l87 1c14 0 23 8 29 21 40 83 105 147 191 190 79 39 163 53 252 42 115-14 211-63 288-147 28-31 52-66 70-104h52c-31 84-83 152-157 205l25 92c4 14-2 24-16 31l-67 47c-10 7-22 5-31-3l-42-37c-41 17-85 29-132 36l-17 68c-3 14-12 21-26 22l-80 1c-14 0-23-7-27-20l-17-68c-48-7-92-19-133-36l-42 37c-9 8-20 10-31 3l-67-45c-12-8-17-18-12-32l23-68c-35-28-66-61-91-99l-64 16c-13 3-23-2-30-14L110 660Z"/>
    <path d="M248 512c-5-127 44-244 137-333 95-91 209-134 341-126 111 7 208 48 290 122 85 77 137 172 157 285h-43c-23-114-83-204-181-270-91-62-192-85-302-69-103 14-188 60-256 138-64 73-99 158-103 253h-40Z"/>
    <path d="M342 512c19-109 75-194 169-254 85-55 178-73 278-55 93 17 170 63 231 137 42 51 69 108 83 172h-45c-24-83-73-149-147-197-77-50-161-65-251-44-84 19-152 64-202 135-23 33-40 68-52 106h-64Z"/>
    <path d="M350 624h142c12 0 22 5 29 15 6 10 6 21 1 32l-64 139c-5 11-13 17-25 17l-110-1c-9 0-12-5-8-13l72-159c4-8 10-30 23-30Z"/>
    <path d="M521 654c4-11 12-17 24-17h89c18 0 29 7 34 20 5 14 0 27-15 38-13 10-31 15-54 15h-45l-3 8 51 103c4 8 1 14-8 14l-72 1c-13 0-22-6-28-17l-51-97c-4-8-4-16 0-24l9-22c4-10 13-15 26-15h62c18 0 31-4 39-11 8-7 8-14 1-20-4-3-9-5-16-5h-83l-62 151-70-1 72-161Z"/>
    <path d="M673 737h99l-37-59c-5-8-1-15 9-15h66c12 0 20 5 27 15l40 60 93-49c9-5 15-4 18 2 2 5-2 10-12 16l-82 44 68 101c5 8 2 14-8 14h-79c-12 0-21-5-27-15l-39-59-91 51c-28 16-57 23-86 22-10 0-12-5-3-11l95-53-56-83c-5-9-1-15 9-15Z"/>
    <path d="M935 648c3-12 13-18 30-18h55c15 0 24 4 27 11 4 8 1 18-7 28-8 9-21 14-38 14h-32c-8 0-13 3-15 10h68l-6 20h-106l4-15c4-15 16-23 36-25l33-4c11-1 17-5 18-11 1-4-2-6-9-6h-59l1-4Z"/>
  </g>
</svg>
